<?xml version="1.0" encoding="UTF-8" standalone="no"?>
<!DOCTYPE svg PUBLIC "-//W3C//DTD SVG 1.1//EN"
 "http://www.w3.org/Graphics/SVG/1.1/DTD/svg11.dtd">
<!-- Generated by graphviz version 2.40.1 (20161225.0304)
 -->
<!-- Title: finite_state_machine Pages: 1 -->
<svg width="576pt" height="213pt"
 viewBox="0.00 0.00 576.00 213.37" xmlns="http://www.w3.org/2000/svg" xmlns:xlink="http://www.w3.org/1999/xlink">
<g id="graph0" class="graph" transform="scale(.8654 .8654) rotate(0) translate(4 242.5473)">
<title>finite_state_machine</title>
<polygon fill="#ffffff" stroke="transparent" points="-4,4 -4,-242.5473 661.5675,-242.5473 661.5675,4 -4,4"/>
<!-- LR_0 -->
<g id="node1" class="node">
<title>LR_0</title>
<ellipse fill="none" stroke="#000000" cx="34.5473" cy="-117" rx="30.5892" ry="30.5892"/>
<ellipse fill="none" stroke="#000000" cx="34.5473" cy="-117" rx="34.5946" ry="34.5946"/>
<text text-anchor="middle" x="34.5473" y="-113.3" font-family="Times,serif" font-size="14.00" fill="#000000">LR_0</text>
</g>
<!-- LR_2 -->
<g id="node3" class="node">
<title>LR_2</title>
<ellipse fill="none" stroke="#000000" cx="265.7364" cy="-114" rx="30.5892" ry="30.5892"/>
<ellipse fill="none" stroke="#000000" cx="265.7364" cy="-114" rx="34.5946" ry="34.5946"/>
<text text-anchor="middle" x="265.7364" y="-110.3" font-family="Times,serif" font-size="14.00" fill="#000000">LR_2</text>
</g>
<!-- LR_0&#45;&gt;LR_2 -->
<g id="edge1" class="edge">
<title>LR_0&#45;&gt;LR_2</title>
<path fill="none" stroke="#000000" d="M69.1586,-116.5509C109.5078,-116.0273 176.312,-115.1604 220.6764,-114.5847"/>
<polygon fill="#000000" stroke="#000000" points="220.9348,-118.0818 230.8885,-114.4522 220.8439,-111.0823 220.9348,-118.0818"/>
<text text-anchor="middle" x="153.6419" y="-118.8" font-family="Times,serif" font-size="14.00" fill="#000000">8</text>
</g>
<!-- LR_3 -->
<g id="node4" class="node">
<title>LR_3</title>
<ellipse fill="none" stroke="#000000" cx="153.6419" cy="-46" rx="30.5892" ry="30.5892"/>
<ellipse fill="none" stroke="#000000" cx="153.6419" cy="-46" rx="34.5946" ry="34.5946"/>
<text text-anchor="middle" x="153.6419" y="-42.3" font-family="Times,serif" font-size="14.00" fill="#000000">LR_3</text>
</g>
<!-- LR_0&#45;&gt;LR_3 -->
<g id="edge2" class="edge">
<title>LR_0&#45;&gt;LR_3</title>
<path fill="none" stroke="#000000" d="M64.2927,-99.2669C79.6394,-90.1177 98.5443,-78.8472 115.0066,-69.033"/>
<polygon fill="#000000" stroke="#000000" points="117.0658,-71.8802 123.8629,-63.7532 113.4812,-65.8676 117.0658,-71.8802"/>
<text text-anchor="middle" x="94.0946" y="-86.8" font-family="Times,serif" font-size="14.00" fill="#000000">10</text>
</g>
<!-- LR_1 -->
<g id="node2" class="node">
<title>LR_1</title>
<ellipse fill="none" stroke="#000000" cx="623.0202" cy="-79" rx="30.5892" ry="30.5892"/>
<ellipse fill="none" stroke="#000000" cx="623.0202" cy="-79" rx="34.5946" ry="34.5946"/>
<text text-anchor="middle" x="623.0202" y="-75.3" font-family="Times,serif" font-size="14.00" fill="#000000">LR_1</text>
</g>
<!-- LR_1&#45;&gt;LR_0 -->
<g id="edge3" class="edge">
<title>LR_1&#45;&gt;LR_0</title>
<path fill="none" stroke="#000000" d="M604.568,-108.4032C583.919,-137.2697 547.5711,-177 503.9256,-177 153.6419,-177 153.6419,-177 153.6419,-177 122.8481,-177 91.9039,-160.8033 69.2782,-145.2403"/>
<polygon fill="#000000" stroke="#000000" points="71.2014,-142.3128 61.0317,-139.3418 67.129,-148.0063 71.2014,-142.3128"/>
<text text-anchor="middle" x="325.2837" y="-180.8" font-family="Times,serif" font-size="14.00" fill="#000000">7</text>
</g>
<!-- LR_5 -->
<g id="node5" class="node">
<title>LR_5</title>
<ellipse fill="none" stroke="#000000" cx="503.9256" cy="-114" rx="30.5892" ry="30.5892"/>
<ellipse fill="none" stroke="#000000" cx="503.9256" cy="-114" rx="34.5946" ry="34.5946"/>
<text text-anchor="middle" x="503.9256" y="-110.3" font-family="Times,serif" font-size="14.00" fill="#000000">LR_5</text>
</g>
<!-- LR_1&#45;&gt;LR_5 -->
<g id="edge5" class="edge">
<title>LR_1&#45;&gt;LR_5</title>
<path fill="none" stroke="#000000" d="M588.6033,-75.9045C578.1006,-75.9154 566.645,-76.9128 556.4729,-80 550.8111,-81.7183 545.1804,-84.244 539.8238,-87.1557"/>
<polygon fill="#000000" stroke="#000000" points="537.9106,-84.2214 531.1106,-92.3462 541.4931,-90.2352 537.9106,-84.2214"/>
<text text-anchor="middle" x="563.4729" y="-83.8" font-family="Times,serif" font-size="14.00" fill="#000000">14</text>
</g>
<!-- LR_4 -->
<g id="node6" class="node">
<title>LR_4</title>
<ellipse fill="none" stroke="#000000" cx="384.831" cy="-88" rx="30.5892" ry="30.5892"/>
<ellipse fill="none" stroke="#000000" cx="384.831" cy="-88" rx="34.5946" ry="34.5946"/>
<text text-anchor="middle" x="384.831" y="-84.3" font-family="Times,serif" font-size="14.00" fill="#000000">LR_4</text>
</g>
<!-- LR_1&#45;&gt;LR_4 -->
<g id="edge4" class="edge">
<title>LR_1&#45;&gt;LR_4</title>
<path fill="none" stroke="#000000" d="M590.1453,-67.3796C574.6789,-62.5077 555.8524,-57.4189 538.4729,-55 508.0574,-50.7667 499.557,-49.3191 469.3783,-55 454.675,-57.7678 439.2473,-63.0223 425.6555,-68.5381"/>
<polygon fill="#000000" stroke="#000000" points="423.9678,-65.4516 416.1195,-72.5688 426.6932,-71.8993 423.9678,-65.4516"/>
<text text-anchor="middle" x="503.9256" y="-58.8" font-family="Times,serif" font-size="14.00" fill="#000000">1</text>
</g>
<!-- LR_2&#45;&gt;LR_4 -->
<g id="edge6" class="edge">
<title>LR_2&#45;&gt;LR_4</title>
<path fill="none" stroke="#000000" d="M299.5456,-106.619C312.3688,-103.8195 327.1639,-100.5895 340.7937,-97.614"/>
<polygon fill="#000000" stroke="#000000" points="341.914,-100.9519 350.9373,-95.3995 340.4209,-94.113 341.914,-100.9519"/>
<text text-anchor="middle" x="325.2837" y="-104.8" font-family="Times,serif" font-size="14.00" fill="#000000">12</text>
</g>
<!-- LR_3&#45;&gt;LR_1 -->
<g id="edge9" class="edge">
<title>LR_3&#45;&gt;LR_1</title>
<path fill="none" stroke="#000000" d="M182.7602,-26.7584C204.6437,-14.1532 235.8657,0 265.7364,0 265.7364,0 265.7364,0 503.9256,0 538.7005,0 571.0953,-23.6795 593.2928,-45.1101"/>
<polygon fill="#000000" stroke="#000000" points="590.8784,-47.6456 600.4184,-52.2542 595.8346,-42.7023 590.8784,-47.6456"/>
<text text-anchor="middle" x="384.831" y="-3.8" font-family="Times,serif" font-size="14.00" fill="#000000">11</text>
</g>
<!-- LR_3&#45;&gt;LR_2 -->
<g id="edge8" class="edge">
<title>LR_3&#45;&gt;LR_2</title>
<path fill="none" stroke="#000000" d="M183.3869,-64.0442C196.815,-72.1901 212.8482,-81.9164 227.1841,-90.613"/>
<polygon fill="#000000" stroke="#000000" points="225.4873,-93.6773 235.8525,-95.8715 229.1179,-87.6924 225.4873,-93.6773"/>
<text text-anchor="middle" x="209.6892" y="-85.8" font-family="Times,serif" font-size="14.00" fill="#000000">2</text>
</g>
<!-- LR_3&#45;&gt;LR_4 -->
<g id="edge7" class="edge">
<title>LR_3&#45;&gt;LR_4</title>
<path fill="none" stroke="#000000" d="M188.43,-45.1206C218.4095,-45.0753 262.6697,-46.7185 300.2837,-55 314.8954,-58.217 330.2993,-63.5876 343.8977,-69.0715"/>
<polygon fill="#000000" stroke="#000000" points="342.8666,-72.4337 353.4432,-73.0556 345.5628,-65.9738 342.8666,-72.4337"/>
<text text-anchor="middle" x="265.7364" y="-58.8" font-family="Times,serif" font-size="14.00" fill="#000000">5</text>
</g>
<!-- LR_5&#45;&gt;LR_1 -->
<g id="edge10" class="edge">
<title>LR_5&#45;&gt;LR_1</title>
<path fill="none" stroke="#000000" d="M537.4716,-104.5456C548.0425,-101.5333 559.7555,-98.1614 570.4729,-95 573.6285,-94.0692 576.8879,-93.0986 580.1659,-92.116"/>
<polygon fill="#000000" stroke="#000000" points="581.4064,-95.3977 589.97,-89.1595 579.3853,-88.6958 581.4064,-95.3977"/>
<text text-anchor="middle" x="563.4729" y="-101.8" font-family="Times,serif" font-size="14.00" fill="#000000">7</text>
</g>
<!-- LR_4&#45;&gt;LR_5 -->
<g id="edge11" class="edge">
<title>LR_4&#45;&gt;LR_5</title>
<path fill="none" stroke="#000000" d="M418.6402,-95.381C431.4634,-98.1805 446.2585,-101.4105 459.8882,-104.386"/>
<polygon fill="#000000" stroke="#000000" points="459.5155,-107.887 470.0319,-106.6005 461.0086,-101.0481 459.5155,-107.887"/>
<text text-anchor="middle" x="444.3783" y="-104.8" font-family="Times,serif" font-size="14.00" fill="#000000">14</text>
</g>
<!-- LR_6 -->
<g id="node7" class="node">
<title>LR_6</title>
<ellipse fill="none" stroke="#000000" cx="34.5473" cy="-204" rx="30.5892" ry="30.5892"/>
<ellipse fill="none" stroke="#000000" cx="34.5473" cy="-204" rx="34.5946" ry="34.5946"/>
<text text-anchor="middle" x="34.5473" y="-200.3" font-family="Times,serif" font-size="14.00" fill="#000000">LR_6</text>
</g>
</g>
</svg>
